# xmcd
#
# Track frame offsets:
#	150
#	40555
#	90555
#	113365
#	133180
#	166168
#	197910
#	221380
#	259480
#	282205
#	304855
#
# Disc length: 4408 seconds
#
# Revision: 0
# Processed by: cddbd v1.5PL3 Copyright (c) Steve Scherf et al.
# Submitted via: dBpowerAMP V4.0
#
DISCID=9411360b
DTITLE=Rufus Thomas - Rufus Thomas Live!
DYEAR=1972
DGENRE=Soul
TTITLE0=Monologue
TTITLE1=Ooh Poo Pah Doo
TTITLE2=Old MacDonald had A Farm
TTITLE3=Walking The Dog
TTITLE4=The Preacher And The Bear
TTITLE5=The Night Time Is The Right Time
TTITLE6=(Do The) Push And Pull
TTITLE7=Do The Funky Chicken
TTITLE8=The Breakdown
TTITLE9=Do The Funky Chicken
TTITLE10=Do The Funky Penguin
EXTD=
EXTT0=
EXTT1=
EXTT2=
EXTT3=
EXTT4=
EXTT5=
EXTT6=
EXTT7=
EXTT8=
EXTT9=
EXTT10=
PLAYORDER=
